# xmcd CD database file
#
# Track frame offsets:
#	150
#	22800
#	43275
#	65925
#
# Disc length: 1146 seconds
#
# Revision: 1
# Processed by: cddbd v1.5PL3 Copyright (c) Steve Scherf et al.
# Submitted via: CDex 1.50
#
DISCID=34047804
DTITLE=MAX - 閃光-ひかり-のVEIL
DYEAR=1998
DGENRE=JPop
TTITLE0=閃光-ひかり-のVEIL
TTITLE1=SO REAL
TTITLE2=閃光-ひかり-のVEIL (Original Karaoke)
TTITLE3=SO REAL (Original Karaoke)
EXTD=YEAR: 1998
EXTT0=
EXTT1=
EXTT2=
EXTT3=
PLAYORDER=
